<?xml version="1.0" standalone="no"?>
<!DOCTYPE svg PUBLIC "-//W3C//DTD SVG 20010904//EN"
 "http://www.w3.org/TR/2001/REC-SVG-20010904/DTD/svg10.dtd">
<svg version="1.0" xmlns="http://www.w3.org/2000/svg"
 width="512.000000pt" height="512.000000pt" viewBox="0 0 512.000000 512.000000"
 preserveAspectRatio="xMidYMid meet">
<metadata>
Created by potrace 1.14, written by Peter Selinger 2001-2017
</metadata>
<g transform="translate(0.000000,512.000000) scale(0.100000,-0.100000)"
fill="#000000" stroke="none">
<path d="M0 2560 l0 -2560 2560 0 2560 0 0 405 0 405 -354 0 -354 0 -128 150
c-70 83 -130 150 -133 149 -3 0 -64 -67 -136 -149 l-130 -149 -1007 -1 -1008
0 0 815 0 815 -325 0 c-179 0 -325 3 -325 8 0 4 184 423 409 932 l408 925 404
3 404 2 95 -207 95 -208 3 208 2 207 501 -2 501 -3 81 -217 c47 -125 85 -212
89 -205 4 7 31 80 61 162 31 83 65 176 77 208 l21 57 375 0 374 0 0 405 0 405
-2560 0 -2560 0 0 -2560z"/>
<path d="M1928 3367 c-164 -370 -298 -676 -298 -680 0 -4 88 -6 196 -5 l196 3
51 128 50 127 333 0 332 0 52 -130 52 -130 374 0 374 0 0 528 c0 298 4 520 9
512 5 -8 86 -222 181 -475 94 -253 181 -484 192 -513 l20 -52 166 2 166 3 198
525 198 525 0 -527 0 -528 175 0 175 0 0 680 0 680 -291 -2 -292 -3 -58 -155
c-33 -85 -105 -276 -160 -425 -56 -148 -105 -273 -108 -277 -3 -4 -80 189
-171 428 l-165 434 -292 0 -293 0 -2 -671 -3 -671 -295 671 -295 671 -235 0
-235 0 -297 -673z m636 120 c53 -130 96 -239 96 -242 0 -3 -93 -5 -206 -5
-118 0 -204 4 -202 9 55 150 204 498 209 488 4 -6 50 -119 103 -250z"/>
<path d="M2152 1753 l3 -678 568 -3 567 -2 0 150 0 150 -395 0 -396 0 3 118 3
117 388 3 387 2 0 145 0 145 -390 0 -390 0 0 120 0 120 395 0 395 0 0 145 0
145 -570 0 -570 0 2 -677z"/>
<path d="M3346 2378 c28 -29 113 -120 190 -203 77 -82 197 -212 267 -287 l128
-137 -315 -335 c-174 -184 -316 -338 -316 -341 0 -3 97 -5 214 -5 l215 0 207
220 c114 121 210 220 214 220 3 0 98 -99 210 -220 l204 -220 225 0 224 0 -19
22 c-10 12 -145 158 -299 323 -154 165 -288 310 -299 322 l-18 22 238 253
c131 139 274 290 318 336 l80 82 -225 0 -224 0 -203 -219 -203 -219 -202 218
-202 218 -230 1 -229 1 50 -52z"/>
<path d="M4926 1951 l-189 -190 120 -128 c67 -70 153 -159 192 -198 l71 -69 0
387 c0 213 -1 387 -3 387 -1 0 -87 -85 -191 -189z"/>
</g>
</svg>
